<svg xmlns="http://www.w3.org/2000/svg" viewBox="0 0 512 441.78"><defs><style>.cls-1{fill:#3442dd;}</style></defs><g id="Слой_2" data-name="Слой 2"><g id="Capa_1" data-name="Capa 1"><path class="cls-1" d="M481.51,175.22,68.41,3.82A49.44,49.44,0,0,0,1.56,61.7L42.15,220.89,1.56,380.08A49.43,49.43,0,0,0,68.41,438l413.1-171.41a49.44,49.44,0,0,0,0-91.33ZM470,238.84,56.92,410.25a19.44,19.44,0,0,1-26.29-22.76l38.66-151.6H218.35a15,15,0,1,0,0-30H69.29L30.63,54.29A19.43,19.43,0,0,1,56.92,31.53L470,202.93a19.44,19.44,0,0,1,0,35.91Z"/></g></g></svg>